S5_12_1.mot
version=1
nRows=18
nColumns=39
inDegrees=no
endheader
time	sternoclavicular_r2	sternoclavicular_r3	unrotscap_r3	unrotscap_r2	acromioclavicular_r2	acromioclavicular_r3	acromioclavicular_r1	unrothum_r1	unrothum_r3	unrothum_r2	elv_angle	shoulder_elv	shoulder1_r2	shoulder_rot	elbow_flexion	pro_sup	deviation	flexion	cmc_abduction	cmc_flexion	mp_flexion	ip_flexion	mcp2_flexion	mcp2_abduction	pm2_flexion	md2_flexion	mcp3_flexion	mcp3_abduction	pm3_flexion	md3_flexion	mcp4_flexion	mcp4_abduction	pm4_flexion	md4_flexion	mcp5_flexion	mcp5_abduction	pm5_flexion	md5_flexion
4.75000000	-0.07983553	0.07990616	0.01919775	0.17691836	0.15258821	0.13535368	0.08474787	0.13918988	0.03339472	0.13217526	0.14400147	-0.09068896	0.11808071	0.11808071	1.21043366	1.28812899	0.00000000	0.00000000	0.00000000	0.00000000	0.00000000	0.00000000	0.00000000	0.00000000	0.00000000	0.00000000	0.00000000	0.00000000	0.00000000	0.00000000	0.00000000	0.00000000	0.00000000	0.00000000	0.00000000	0.00000000	0.00000000	0.00000000
4.75500000	-0.07967962	0.07972532	0.01904686	0.17629534	0.15213058	0.13445937	0.08448517	0.13777449	0.03289338	0.13177186	0.14319802	-0.09055052	0.11715926	0.11715926	1.21207199	1.28813314	0.00000000	0.00000000	0.00000000	0.00000000	0.00000000	0.00000000	0.00000000	0.00000000	0.00000000	0.00000000	0.00000000	0.00000000	0.00000000	0.00000000	0.00000000	0.00000000	0.00000000	0.00000000	0.00000000	0.00000000	0.00000000	0.00000000
4.76000000	-0.07952280	0.07953882	0.01889666	0.17565770	0.15165892	0.13356066	0.08421867	0.13634864	0.03239019	0.13135523	0.14237971	-0.09040544	0.11622260	0.11622260	1.21365341	1.28813807	0.00000000	0.00000000	0.00000000	0.00000000	0.00000000	0.00000000	0.00000000	0.00000000	0.00000000	0.00000000	0.00000000	0.00000000	0.00000000	0.00000000	0.00000000	0.00000000	0.00000000	0.00000000	0.00000000	0.00000000	0.00000000	0.00000000
4.76500000	-0.07936570	0.07934670	0.01874803	0.17500621	0.15117359	0.13265957	0.08394834	0.13491538	0.03188606	0.13092557	0.14154760	-0.09025398	0.11527207	0.11527207	1.21517128	1.28814380	0.00000000	0.00000000	0.00000000	0.00000000	0.00000000	0.00000000	0.00000000	0.00000000	0.00000000	0.00000000	0.00000000	0.00000000	0.00000000	0.00000000	0.00000000	0.00000000	0.00000000	0.00000000	0.00000000	0.00000000	0.00000000	0.00000000
4.77000000	-0.07920893	0.07914897	0.01860189	0.17434165	0.15067499	0.13175814	0.08367415	0.13347779	0.03138190	0.13048315	0.14070281	-0.09009645	0.11430909	0.11430909	1.21661898	1.28815035	0.00000000	0.00000000	0.00000000	0.00000000	0.00000000	0.00000000	0.00000000	0.00000000	0.00000000	0.00000000	0.00000000	0.00000000	0.00000000	0.00000000	0.00000000	0.00000000	0.00000000	0.00000000	0.00000000	0.00000000	0.00000000	0.00000000
4.77500000	-0.07905310	0.07894566	0.01845914	0.17366486	0.15016354	0.13085845	0.08339607	0.13203899	0.03087864	0.13002825	0.13984650	-0.08993314	0.11333507	0.11333507	1.21798990	1.28815774	0.00000000	0.00000000	0.00000000	0.00000000	0.00000000	0.00000000	0.00000000	0.00000000	0.00000000	0.00000000	0.00000000	0.00000000	0.00000000	0.00000000	0.00000000	0.00000000	0.00000000	0.00000000	0.00000000	0.00000000	0.00000000	0.00000000
4.78000000	-0.07889880	0.07873678	0.01832071	0.17297672	0.14963973	0.12996261	0.08311410	0.13060208	0.03037720	0.12956121	0.13897987	-0.08976440	0.11235150	0.11235150	1.21927748	1.28816597	0.00000000	0.00000000	0.00000000	0.00000000	0.00000000	0.00000000	0.00000000	0.00000000	0.00000000	0.00000000	0.00000000	0.00000000	0.00000000	0.00000000	0.00000000	0.00000000	0.00000000	0.00000000	0.00000000	0.00000000	0.00000000	0.00000000
4.78500000	-0.07874663	0.07852233	0.01818754	0.17227814	0.14910405	0.12907273	0.08282822	0.12917014	0.02987854	0.12908239	0.13810415	-0.08959056	0.11135988	0.11135988	1.22047523	1.28817507	0.00000000	0.00000000	0.00000000	0.00000000	0.00000000	0.00000000	0.00000000	0.00000000	0.00000000	0.00000000	0.00000000	0.00000000	0.00000000	0.00000000	0.00000000	0.00000000	0.00000000	0.00000000	0.00000000	0.00000000	0.00000000	0.00000000
4.79000000	-0.07859717	0.07830229	0.01806054	0.17157008	0.14855706	0.12819093	0.08253845	0.12774626	0.02938359	0.12859222	0.13722061	-0.08941196	0.11036175	0.11036175	1.22157676	1.28818505	0.00000000	0.00000000	0.00000000	0.00000000	0.00000000	0.00000000	0.00000000	0.00000000	0.00000000	0.00000000	0.00000000	0.00000000	0.00000000	0.00000000	0.00000000	0.00000000	0.00000000	0.00000000	0.00000000	0.00000000	0.00000000	0.00000000
4.79500000	-0.07845100	0.07807664	0.01794064	0.17085353	0.14799933	0.12731931	0.08224479	0.12633347	0.02889330	0.12809114	0.13633055	-0.08922897	0.10935865	0.10935865	1.22257577	1.28819594	0.00000000	0.00000000	0.00000000	0.00000000	0.00000000	0.00000000	0.00000000	0.00000000	0.00000000	0.00000000	0.00000000	0.00000000	0.00000000	0.00000000	0.00000000	0.00000000	0.00000000	0.00000000	0.00000000	0.00000000	0.00000000	0.00000000
4.80000000	-0.07830866	0.07784534	0.01782874	0.17012952	0.14743150	0.12645998	0.08194728	0.12493474	0.02840860	0.12757965	0.13543527	-0.08904195	0.10835216	0.10835216	1.22346613	1.28820774	0.00000000	0.00000000	0.00000000	0.00000000	0.00000000	0.00000000	0.00000000	0.00000000	0.00000000	0.00000000	0.00000000	0.00000000	0.00000000	0.00000000	0.00000000	0.00000000	0.00000000	0.00000000	0.00000000	0.00000000	0.00000000	0.00000000
4.80500000	-0.07817069	0.07760834	0.01772576	0.16939909	0.14685421	0.12561500	0.08164595	0.12355300	0.02793044	0.12705828	0.13453614	-0.08885130	0.10734388	0.10734388	1.22424189	1.28822048	0.00000000	0.00000000	0.00000000	0.00000000	0.00000000	0.00000000	0.00000000	0.00000000	0.00000000	0.00000000	0.00000000	0.00000000	0.00000000	0.00000000	0.00000000	0.00000000	0.00000000	0.00000000	0.00000000	0.00000000	0.00000000	0.00000000
4.81000000	-0.07803760	0.07736557	0.01763256	0.16866335	0.14626817	0.12478642	0.08134085	0.12219109	0.02745974	0.12652761	0.13363451	-0.08865737	0.10633538	0.10633538	1.22489727	1.28823418	0.00000000	0.00000000	0.00000000	0.00000000	0.00000000	0.00000000	0.00000000	0.00000000	0.00000000	0.00000000	0.00000000	0.00000000	0.00000000	0.00000000	0.00000000	0.00000000	0.00000000	0.00000000	0.00000000	0.00000000	0.00000000	0.00000000
4.81500000	-0.07790986	0.07711693	0.01755002	0.16792339	0.14567410	0.12397625	0.08103203	0.12085177	0.02699739	0.12598824	0.13273177	-0.08846056	0.10532828	0.10532828	1.22542674	1.28824886	0.00000000	0.00000000	0.00000000	0.00000000	0.00000000	0.00000000	0.00000000	0.00000000	0.00000000	0.00000000	0.00000000	0.00000000	0.00000000	0.00000000	0.00000000	0.00000000	0.00000000	0.00000000	0.00000000	0.00000000	0.00000000	0.00000000
4.82000000	-0.07778795	0.07686230	0.01747898	0.16718035	0.14507276	0.12318644	0.08071956	0.11953768	0.02654431	0.12544084	0.13182929	-0.08826126	0.10432418	0.10432418	1.22582498	1.28826453	0.00000000	0.00000000	0.00000000	0.00000000	0.00000000	0.00000000	0.00000000	0.00000000	0.00000000	0.00000000	0.00000000	0.00000000	0.00000000	0.00000000	0.00000000	0.00000000	0.00000000	0.00000000	0.00000000	0.00000000	0.00000000	0.00000000
4.82500000	-0.07767228	0.07660156	0.01742024	0.16643538	0.14446494	0.12241889	0.08040352	0.11825139	0.02610136	0.12488609	0.13092847	-0.08805984	0.10332466	0.10332466	1.22608698	1.28828121	0.00000000	0.00000000	0.00000000	0.00000000	0.00000000	0.00000000	0.00000000	0.00000000	0.00000000	0.00000000	0.00000000	0.00000000	0.00000000	0.00000000	0.00000000	0.00000000	0.00000000	0.00000000	0.00000000	0.00000000	0.00000000	0.00000000
4.83000000	-0.07756325	0.07633454	0.01737460	0.16568965	0.14385147	0.12167545	0.08008400	0.11699531	0.02566939	0.12432472	0.13003072	-0.08785668	0.10233130	0.10233130	1.22620800	1.28829893	0.00000000	0.00000000	0.00000000	0.00000000	0.00000000	0.00000000	0.00000000	0.00000000	0.00000000	0.00000000	0.00000000	0.00000000	0.00000000	0.00000000	0.00000000	0.00000000	0.00000000	0.00000000	0.00000000	0.00000000	0.00000000	0.00000000
4.83500000	-0.07746123	0.07606105	0.01734279	0.16494435	0.14323319	0.12095789	0.07976109	0.11577175	0.02524924	0.12375750	0.12913742	-0.08765217	0.10134569	0.10134569	1.22618362	1.28831771	0.00000000	0.00000000	0.00000000	0.00000000	0.00000000	0.00000000	0.00000000	0.00000000	0.00000000	0.00000000	0.00000000	0.00000000	0.00000000	0.00000000	0.00000000	0.00000000	0.00000000	0.00000000	0.00000000	0.00000000	0.00000000	0.00000000
